<?xml version="1.0" standalone="no"?>
<!DOCTYPE svg PUBLIC "-//W3C//DTD SVG 20010904//EN"
 "http://www.w3.org/TR/2001/REC-SVG-20010904/DTD/svg10.dtd">
<svg version="1.0" xmlns="http://www.w3.org/2000/svg"
 width="700.000000pt" height="700.000000pt" viewBox="0 0 700.000000 700.000000"
 preserveAspectRatio="xMidYMid meet">
<metadata>
Created by potrace 1.14, written by Peter Selinger 2001-2017
</metadata>
<g transform="translate(0.000000,700.000000) scale(0.100000,-0.100000)"
fill="#000000" stroke="none">
<path d="M0 3500 l0 -3500 3500 0 3500 0 0 3500 0 3500 -3500 0 -3500 0 0
-3500z m6151 2153 c73 -37 96 -83 79 -151 -24 -98 -74 -154 -376 -419 -184
-160 -536 -455 -666 -556 -49 -38 -88 -75 -88 -84 0 -8 16 -33 35 -56 44 -51
45 -79 3 -111 -86 -65 -463 -172 -816 -231 -629 -105 -1673 -137 -2282 -69
-323 35 -530 72 -530 93 0 15 51 31 173 56 241 48 607 64 1457 65 800 1 1211
17 1125 43 -91 29 -1460 48 -2030 28 -355 -12 -509 -26 -705 -66 -154 -32
-370 -43 -461 -26 -161 32 -256 124 -204 199 52 74 299 151 675 211 375 60
737 75 1640 68 729 -6 909 -14 1278 -61 l254 -33 74 98 c107 141 275 320 470
500 294 272 435 384 569 452 170 85 235 95 326 50z m-916 -1548 c59 -224 63
-709 9 -1070 -33 -223 -98 -462 -175 -637 -130 -302 -481 -672 -776 -820 -90
-45 -111 -52 -166 -52 -57 -1 -75 4 -158 46 -96 48 -189 118 -189 144 0 20 74
71 245 169 370 212 597 427 728 690 89 178 121 423 71 543 -12 29 -16 32 -34
22 -29 -16 -130 -141 -232 -289 -288 -415 -422 -591 -602 -794 -89 -100 -177
-177 -202 -177 -29 0 -48 140 -64 480 -22 470 -50 547 -291 805 -187 202 -201
232 -124 285 146 101 442 179 891 235 513 65 622 106 843 319 149 143 192 179
202 169 4 -4 15 -35 24 -68z m-4030 -205 c157 -75 359 -136 680 -205 643 -138
1006 -337 1230 -675 140 -212 205 -434 240 -824 27 -303 56 -398 144 -487 43
-42 75 -63 136 -88 221 -90 244 -109 212 -176 -37 -78 -135 -96 -627 -115
-433 -18 -661 2 -937 81 -465 134 -837 403 -1096 794 -89 134 -199 366 -255
538 -104 318 -149 602 -159 1017 -5 232 2 335 27 366 9 10 43 -8 158 -83 81
-52 192 -116 247 -143z"/>
<path d="M1884 2804 c-16 -63 37 -290 96 -411 131 -268 422 -527 742 -663 165
-69 491 -179 663 -223 156 -40 306 -70 313 -62 3 2 -24 17 -59 32 -229 97
-437 219 -654 383 -217 163 -356 289 -671 605 -367 369 -413 406 -430 339z"/>
</g>
</svg>
