<?xml version="1.0" standalone="no"?>
<!DOCTYPE svg PUBLIC "-//W3C//DTD SVG 20010904//EN"
 "http://www.w3.org/TR/2001/REC-SVG-20010904/DTD/svg10.dtd">
<svg version="1.0" xmlns="http://www.w3.org/2000/svg"
 width="700.000000pt" height="700.000000pt" viewBox="0 0 700.000000 700.000000"
 preserveAspectRatio="xMidYMid meet">
<metadata>
Created by potrace 1.11, written by Peter Selinger 2001-2013
</metadata>
<g transform="translate(0.000000,700.000000) scale(0.100000,-0.100000)"
fill="#000000" stroke="none">
<path d="M1285 6994 c-360 -45 -622 -170 -866 -413 -215 -215 -340 -452 -395
-746 -18 -96 -19 -194 -19 -2345 l0 -2245 23 -104 c66 -299 202 -545 412 -745
121 -115 210 -176 355 -246 141 -68 206 -91 346 -122 l104 -23 2255 0 2255 0
104 23 c134 30 203 53 330 113 410 193 694 563 788 1024 17 86 18 202 18 2335
0 2133 -1 2249 -18 2335 -41 201 -122 396 -229 553 -75 109 -263 295 -375 370
-158 105 -319 172 -513 215 -95 21 -96 21 -2320 23 -1224 1 -2238 0 -2255 -2z
m1570 -798 c136 -43 244 -118 340 -236 95 -116 173 -269 219 -430 l16 -55 -33
40 c-93 116 -203 212 -318 279 -66 38 -198 84 -260 91 l-54 6 59 -25 c180 -77
416 -303 605 -581 61 -88 61 -90 39 -99 -13 -6 -108 -10 -213 -11 -165 0 -200
3 -270 22 -206 56 -331 144 -471 328 -168 220 -357 375 -537 440 l-60 22 64
36 c338 189 639 249 874 173z m1545 -286 c41 -12 117 -41 169 -66 l94 -44 -64
-32 c-87 -43 -215 -173 -302 -306 -74 -112 -122 -164 -196 -212 -90 -57 -220
-90 -351 -89 -111 1 -110 -1 -38 119 110 184 230 321 332 382 48 28 49 29 17
24 -98 -17 -248 -128 -339 -251 -43 -58 -44 -59 -38 -25 53 264 213 466 411
517 67 17 210 9 305 -17z m-290 -1245 c116 -19 270 -70 382 -125 574 -287 892
-941 767 -1575 -58 -292 -198 -547 -413 -752 -205 -197 -514 -355 -661 -340
-110 11 -204 77 -252 175 -75 153 4 335 175 403 170 67 332 168 429 268 260
266 346 628 249 1051 -54 237 -140 397 -295 551 -170 169 -364 263 -616 299
-184 26 -411 -4 -574 -76 -64 -29 -80 -31 -30 -4 99 52 243 99 384 125 99 19
340 18 455 0z m1419 -1017 c72 -221 100 -382 108 -620 8 -250 -17 -455 -84
-683 -276 -944 -1170 -1589 -2153 -1552 -947 36 -1754 668 -2011 1575 -85 304
-63 477 81 636 151 164 405 185 584 47 93 -72 133 -142 196 -341 75 -240 179
-471 282 -623 23 -34 94 -114 157 -178 248 -247 536 -386 904 -434 216 -28
483 -15 737 36 372 75 747 331 963 659 279 424 364 951 232 1445 -13 50 -27
98 -30 108 -4 9 -5 17 -2 17 3 0 19 -42 36 -92z"/>
</g>
</svg>
